<mxfile host="Electron" modified="2025-09-11T21:08:36.290Z" agent="Mozilla/5.0 (Windows NT 10.0; Win64; x64) AppleWebKit/537.36 (KHTML, like Gecko) draw.io/23.1.5 Chrome/120.0.6099.109 Electron/28.1.0 Safari/537.36" etag="K2cyvfhgX1Irw1yLGK7b" version="23.1.5" type="device">
  <diagram name="Page-1" id="vbcMVjURJgtJ42ZDk6ty">
    <mxGraphModel dx="2876" dy="2363" grid="1" gridSize="10" guides="1" tooltips="1" connect="1" arrows="1" fold="1" page="1" pageScale="1" pageWidth="827" pageHeight="1169" math="0" shadow="0">
      <root>
        <mxCell id="0" />
        <mxCell id="1" parent="0" />
        <mxCell id="pVkDnm4UJQp13vE4F_3l-3" value="Input" style="swimlane;whiteSpace=wrap;html=1;" parent="1" vertex="1">
          <mxGeometry x="-410" y="180" width="310" height="610" as="geometry" />
        </mxCell>
        <mxCell id="pVkDnm4UJQp13vE4F_3l-2" value="Batterie&lt;div&gt;4s 14.8V LiPO&lt;/div&gt;&lt;div&gt;2200 mAh&lt;/div&gt;" style="rounded=1;whiteSpace=wrap;html=1;" parent="pVkDnm4UJQp13vE4F_3l-3" vertex="1">
          <mxGeometry x="120" y="40" width="120" height="60" as="geometry" />
        </mxCell>
        <mxCell id="pVkDnm4UJQp13vE4F_3l-4" value="DÃ©buggeur&lt;div&gt;ST-Link&lt;/div&gt;&lt;div&gt;SWD 3v3&lt;/div&gt;" style="rounded=1;whiteSpace=wrap;html=1;" parent="pVkDnm4UJQp13vE4F_3l-3" vertex="1">
          <mxGeometry x="120" y="140" width="120" height="60" as="geometry" />
        </mxCell>
        <mxCell id="3BUjcoI-ck8Lt89UXKEq-1" value="Ultrasonic sensor&lt;br&gt;3942 adafruit&lt;br&gt;5V" style="rounded=1;whiteSpace=wrap;html=1;" parent="pVkDnm4UJQp13vE4F_3l-3" vertex="1">
          <mxGeometry x="120" y="275" width="120" height="60" as="geometry" />
        </mxCell>
        <mxCell id="3BUjcoI-ck8Lt89UXKEq-2" value="LIDAR&lt;br&gt;https://www.dfrobot.com/product-1995.html&lt;br&gt;5V power / 3v3 UART" style="rounded=1;whiteSpace=wrap;html=1;" parent="pVkDnm4UJQp13vE4F_3l-3" vertex="1">
          <mxGeometry x="70" y="490" width="200" height="60" as="geometry" />
        </mxCell>
        <mxCell id="pVkDnm4UJQp13vE4F_3l-11" value="HC-05&lt;br&gt;5V pwr/ 3v3 UART" style="rounded=1;whiteSpace=wrap;html=1;" parent="pVkDnm4UJQp13vE4F_3l-3" vertex="1">
          <mxGeometry x="120" y="380" width="120" height="60" as="geometry" />
        </mxCell>
        <mxCell id="pVkDnm4UJQp13vE4F_3l-5" value="Output" style="swimlane;whiteSpace=wrap;html=1;" parent="1" vertex="1">
          <mxGeometry x="880" y="180" width="460" height="460" as="geometry" />
        </mxCell>
        <mxCell id="pVkDnm4UJQp13vE4F_3l-10" value="Moteur&lt;br&gt;14v8 35A" style="rounded=1;whiteSpace=wrap;html=1;" parent="pVkDnm4UJQp13vE4F_3l-5" vertex="1">
          <mxGeometry x="350" y="385" width="85" height="30" as="geometry" />
        </mxCell>
        <mxCell id="3BUjcoI-ck8Lt89UXKEq-7" style="edgeStyle=orthogonalEdgeStyle;rounded=0;orthogonalLoop=1;jettySize=auto;html=1;entryX=0;entryY=0.5;entryDx=0;entryDy=0;" parent="pVkDnm4UJQp13vE4F_3l-5" source="3BUjcoI-ck8Lt89UXKEq-6" target="pVkDnm4UJQp13vE4F_3l-10" edge="1">
          <mxGeometry relative="1" as="geometry" />
        </mxCell>
        <mxCell id="3BUjcoI-ck8Lt89UXKEq-8" value="3 phases" style="edgeLabel;html=1;align=center;verticalAlign=middle;resizable=0;points=[];" parent="3BUjcoI-ck8Lt89UXKEq-7" vertex="1" connectable="0">
          <mxGeometry x="0.05" relative="1" as="geometry">
            <mxPoint as="offset" />
          </mxGeometry>
        </mxCell>
        <mxCell id="3BUjcoI-ck8Lt89UXKEq-6" value="ESC&lt;br&gt;14v8 35 A" style="rounded=1;whiteSpace=wrap;html=1;" parent="pVkDnm4UJQp13vE4F_3l-5" vertex="1">
          <mxGeometry x="120" y="380" width="120" height="40" as="geometry" />
        </mxCell>
        <mxCell id="3BUjcoI-ck8Lt89UXKEq-37" style="edgeStyle=orthogonalEdgeStyle;rounded=0;orthogonalLoop=1;jettySize=auto;html=1;entryX=0;entryY=0.5;entryDx=0;entryDy=0;" parent="pVkDnm4UJQp13vE4F_3l-5" source="3BUjcoI-ck8Lt89UXKEq-9" target="3BUjcoI-ck8Lt89UXKEq-23" edge="1">
          <mxGeometry relative="1" as="geometry">
            <Array as="points">
              <mxPoint x="40" y="115" />
              <mxPoint x="40" y="185" />
            </Array>
          </mxGeometry>
        </mxCell>
        <mxCell id="3BUjcoI-ck8Lt89UXKEq-9" value="Servo&lt;br&gt;5v&lt;br&gt;3v3 PWM" style="rounded=1;whiteSpace=wrap;html=1;" parent="pVkDnm4UJQp13vE4F_3l-5" vertex="1">
          <mxGeometry x="74" y="90" width="90" height="50" as="geometry" />
        </mxCell>
        <mxCell id="3BUjcoI-ck8Lt89UXKEq-25" value="Servo&lt;br&gt;5v&lt;br&gt;3v3 PWM" style="rounded=1;whiteSpace=wrap;html=1;" parent="pVkDnm4UJQp13vE4F_3l-5" vertex="1">
          <mxGeometry x="74" y="300" width="90" height="50" as="geometry" />
        </mxCell>
        <mxCell id="3BUjcoI-ck8Lt89UXKEq-39" style="edgeStyle=orthogonalEdgeStyle;rounded=0;orthogonalLoop=1;jettySize=auto;html=1;entryX=0;entryY=0.5;entryDx=0;entryDy=0;" parent="pVkDnm4UJQp13vE4F_3l-5" source="3BUjcoI-ck8Lt89UXKEq-24" target="3BUjcoI-ck8Lt89UXKEq-25" edge="1">
          <mxGeometry relative="1" as="geometry">
            <Array as="points">
              <mxPoint x="40" y="255" />
              <mxPoint x="40" y="325" />
            </Array>
          </mxGeometry>
        </mxCell>
        <mxCell id="3BUjcoI-ck8Lt89UXKEq-24" value="Servo&lt;br&gt;5v&lt;br&gt;3v3 PWM" style="rounded=1;whiteSpace=wrap;html=1;" parent="pVkDnm4UJQp13vE4F_3l-5" vertex="1">
          <mxGeometry x="74" y="230" width="90" height="50" as="geometry" />
        </mxCell>
        <mxCell id="3BUjcoI-ck8Lt89UXKEq-38" style="edgeStyle=orthogonalEdgeStyle;rounded=0;orthogonalLoop=1;jettySize=auto;html=1;entryX=0;entryY=0.5;entryDx=0;entryDy=0;" parent="pVkDnm4UJQp13vE4F_3l-5" source="3BUjcoI-ck8Lt89UXKEq-23" target="3BUjcoI-ck8Lt89UXKEq-24" edge="1">
          <mxGeometry relative="1" as="geometry">
            <Array as="points">
              <mxPoint x="40" y="185" />
              <mxPoint x="40" y="255" />
            </Array>
          </mxGeometry>
        </mxCell>
        <mxCell id="3BUjcoI-ck8Lt89UXKEq-23" value="Servo&lt;br&gt;5v&lt;br&gt;3v3 PWM" style="rounded=1;whiteSpace=wrap;html=1;" parent="pVkDnm4UJQp13vE4F_3l-5" vertex="1">
          <mxGeometry x="74" y="160" width="90" height="50" as="geometry" />
        </mxCell>
        <mxCell id="pVkDnm4UJQp13vE4F_3l-16" value="PCB" style="swimlane;whiteSpace=wrap;html=1;" parent="1" vertex="1">
          <mxGeometry x="20" y="140" width="760" height="670" as="geometry" />
        </mxCell>
        <mxCell id="3BUjcoI-ck8Lt89UXKEq-5" value="Buzzer&lt;div&gt;SMTB-0927-TW-R&lt;br&gt;&lt;/div&gt;&lt;div&gt;5v&lt;/div&gt;" style="rounded=1;whiteSpace=wrap;html=1;" parent="pVkDnm4UJQp13vE4F_3l-16" vertex="1">
          <mxGeometry x="490" y="490" width="120" height="60" as="geometry" />
        </mxCell>
        <mxCell id="3BUjcoI-ck8Lt89UXKEq-15" style="edgeStyle=orthogonalEdgeStyle;rounded=0;orthogonalLoop=1;jettySize=auto;html=1;entryX=0;entryY=0.5;entryDx=0;entryDy=0;" parent="pVkDnm4UJQp13vE4F_3l-16" source="3BUjcoI-ck8Lt89UXKEq-13" target="pVkDnm4UJQp13vE4F_3l-12" edge="1">
          <mxGeometry relative="1" as="geometry" />
        </mxCell>
        <mxCell id="3BUjcoI-ck8Lt89UXKEq-13" value="5 pins SWD&lt;br&gt;3v3" style="rounded=1;whiteSpace=wrap;html=1;" parent="pVkDnm4UJQp13vE4F_3l-16" vertex="1">
          <mxGeometry x="100" y="230" width="120" height="60" as="geometry" />
        </mxCell>
        <mxCell id="3BUjcoI-ck8Lt89UXKEq-17" style="edgeStyle=orthogonalEdgeStyle;rounded=0;orthogonalLoop=1;jettySize=auto;html=1;entryX=0;entryY=0.75;entryDx=0;entryDy=0;" parent="pVkDnm4UJQp13vE4F_3l-16" source="pVkDnm4UJQp13vE4F_3l-1" target="pVkDnm4UJQp13vE4F_3l-12" edge="1">
          <mxGeometry relative="1" as="geometry">
            <Array as="points">
              <mxPoint x="260" y="340" />
              <mxPoint x="260" y="275" />
            </Array>
          </mxGeometry>
        </mxCell>
        <mxCell id="3BUjcoI-ck8Lt89UXKEq-16" style="edgeStyle=orthogonalEdgeStyle;rounded=0;orthogonalLoop=1;jettySize=auto;html=1;" parent="pVkDnm4UJQp13vE4F_3l-16" source="pVkDnm4UJQp13vE4F_3l-12" target="3BUjcoI-ck8Lt89UXKEq-3" edge="1">
          <mxGeometry relative="1" as="geometry" />
        </mxCell>
        <mxCell id="3BUjcoI-ck8Lt89UXKEq-20" style="edgeStyle=orthogonalEdgeStyle;rounded=0;orthogonalLoop=1;jettySize=auto;html=1;exitX=0.75;exitY=1;exitDx=0;exitDy=0;entryX=0;entryY=0.5;entryDx=0;entryDy=0;" parent="pVkDnm4UJQp13vE4F_3l-16" source="pVkDnm4UJQp13vE4F_3l-12" target="3BUjcoI-ck8Lt89UXKEq-5" edge="1">
          <mxGeometry relative="1" as="geometry" />
        </mxCell>
        <mxCell id="3BUjcoI-ck8Lt89UXKEq-21" value="PWM 3v3" style="edgeLabel;html=1;align=center;verticalAlign=middle;resizable=0;points=[];" parent="3BUjcoI-ck8Lt89UXKEq-20" vertex="1" connectable="0">
          <mxGeometry x="0.8332" y="-2" relative="1" as="geometry">
            <mxPoint x="-22" y="-2" as="offset" />
          </mxGeometry>
        </mxCell>
        <mxCell id="pVkDnm4UJQp13vE4F_3l-12" value="MCU&lt;br&gt;STM32F469VGT6&lt;br&gt;3v3" style="rounded=1;whiteSpace=wrap;html=1;" parent="pVkDnm4UJQp13vE4F_3l-16" vertex="1">
          <mxGeometry x="310" y="230" width="120" height="60" as="geometry" />
        </mxCell>
        <mxCell id="3BUjcoI-ck8Lt89UXKEq-18" value="" style="swimlane;startSize=0;fillColor=#FFF2CC;strokeColor=#d6b656;gradientColor=none;swimlaneFillColor=none;" parent="pVkDnm4UJQp13vE4F_3l-16" vertex="1">
          <mxGeometry x="90" y="200" width="580" height="270" as="geometry" />
        </mxCell>
        <mxCell id="3BUjcoI-ck8Lt89UXKEq-3" value="3 pin uart&lt;br&gt;3v3" style="rounded=1;whiteSpace=wrap;html=1;" parent="3BUjcoI-ck8Lt89UXKEq-18" vertex="1">
          <mxGeometry x="160" y="170" width="120" height="60" as="geometry" />
        </mxCell>
        <mxCell id="3BUjcoI-ck8Lt89UXKEq-19" value="3v3" style="text;html=1;align=center;verticalAlign=middle;resizable=0;points=[];autosize=1;strokeColor=none;fillColor=none;" parent="3BUjcoI-ck8Lt89UXKEq-18" vertex="1">
          <mxGeometry x="10" width="40" height="30" as="geometry" />
        </mxCell>
        <mxCell id="3BUjcoI-ck8Lt89UXKEq-32" value="LED bleu" style="rounded=1;whiteSpace=wrap;html=1;" parent="3BUjcoI-ck8Lt89UXKEq-18" vertex="1">
          <mxGeometry x="370" y="30" width="120" height="60" as="geometry" />
        </mxCell>
        <mxCell id="pVkDnm4UJQp13vE4F_3l-1" value="IMU&lt;br&gt;ICM-42688-P&lt;br&gt;SPI 3v3" style="rounded=1;whiteSpace=wrap;html=1;" parent="3BUjcoI-ck8Lt89UXKEq-18" vertex="1">
          <mxGeometry x="10" y="110" width="120" height="60" as="geometry" />
        </mxCell>
        <mxCell id="3BUjcoI-ck8Lt89UXKEq-4" value="1 LED debug verte" style="rounded=1;whiteSpace=wrap;html=1;" parent="3BUjcoI-ck8Lt89UXKEq-18" vertex="1">
          <mxGeometry x="370" y="100" width="120" height="60" as="geometry" />
        </mxCell>
        <mxCell id="UDr56X1mLAqt--iV8H8K-8" value="HM 10&lt;br&gt;&amp;nbsp;3v3 UART" style="rounded=1;whiteSpace=wrap;html=1;" parent="3BUjcoI-ck8Lt89UXKEq-18" vertex="1">
          <mxGeometry x="10" y="200" width="120" height="60" as="geometry" />
        </mxCell>
        <mxCell id="3BUjcoI-ck8Lt89UXKEq-34" style="edgeStyle=orthogonalEdgeStyle;rounded=0;orthogonalLoop=1;jettySize=auto;html=1;exitX=1;exitY=0.5;exitDx=0;exitDy=0;entryX=0;entryY=0.5;entryDx=0;entryDy=0;" parent="pVkDnm4UJQp13vE4F_3l-16" source="3BUjcoI-ck8Lt89UXKEq-22" target="3BUjcoI-ck8Lt89UXKEq-33" edge="1">
          <mxGeometry relative="1" as="geometry" />
        </mxCell>
        <mxCell id="3BUjcoI-ck8Lt89UXKEq-22" value="LDO&lt;br&gt;15v-5V 3A&lt;br&gt;LT1529CQ-5#PBF" style="rounded=1;whiteSpace=wrap;html=1;" parent="pVkDnm4UJQp13vE4F_3l-16" vertex="1">
          <mxGeometry x="260" y="30" width="120" height="60" as="geometry" />
        </mxCell>
        <mxCell id="3BUjcoI-ck8Lt89UXKEq-31" style="edgeStyle=orthogonalEdgeStyle;rounded=0;orthogonalLoop=1;jettySize=auto;html=1;" parent="pVkDnm4UJQp13vE4F_3l-16" source="3BUjcoI-ck8Lt89UXKEq-28" target="pVkDnm4UJQp13vE4F_3l-12" edge="1">
          <mxGeometry relative="1" as="geometry" />
        </mxCell>
        <mxCell id="3BUjcoI-ck8Lt89UXKEq-35" style="edgeStyle=orthogonalEdgeStyle;rounded=0;orthogonalLoop=1;jettySize=auto;html=1;entryX=0.5;entryY=0;entryDx=0;entryDy=0;" parent="pVkDnm4UJQp13vE4F_3l-16" source="3BUjcoI-ck8Lt89UXKEq-28" target="3BUjcoI-ck8Lt89UXKEq-32" edge="1">
          <mxGeometry relative="1" as="geometry" />
        </mxCell>
        <mxCell id="3BUjcoI-ck8Lt89UXKEq-28" value="LDO&lt;br&gt;15v-3V3 1A&lt;br&gt;AZ1117CH-3.3TRG1" style="rounded=1;whiteSpace=wrap;html=1;" parent="pVkDnm4UJQp13vE4F_3l-16" vertex="1">
          <mxGeometry x="260" y="120" width="120" height="60" as="geometry" />
        </mxCell>
        <mxCell id="3BUjcoI-ck8Lt89UXKEq-33" value="LED bleu" style="rounded=1;whiteSpace=wrap;html=1;" parent="pVkDnm4UJQp13vE4F_3l-16" vertex="1">
          <mxGeometry x="490" y="30" width="120" height="60" as="geometry" />
        </mxCell>
        <mxCell id="hm7Egg7z6qPXurAjoru_-4" value="xt60" style="rounded=0;whiteSpace=wrap;html=1;fillColor=#fff2cc;strokeColor=#d6b656;" vertex="1" parent="pVkDnm4UJQp13vE4F_3l-16">
          <mxGeometry y="80" width="40" height="60" as="geometry" />
        </mxCell>
        <mxCell id="hm7Egg7z6qPXurAjoru_-7" value="xt60" style="rounded=0;whiteSpace=wrap;html=1;fillColor=#fff2cc;strokeColor=#d6b656;" vertex="1" parent="pVkDnm4UJQp13vE4F_3l-16">
          <mxGeometry x="720" y="550" width="40" height="60" as="geometry" />
        </mxCell>
        <mxCell id="3BUjcoI-ck8Lt89UXKEq-14" style="edgeStyle=orthogonalEdgeStyle;rounded=0;orthogonalLoop=1;jettySize=auto;html=1;" parent="1" source="pVkDnm4UJQp13vE4F_3l-4" target="3BUjcoI-ck8Lt89UXKEq-13" edge="1">
          <mxGeometry relative="1" as="geometry" />
        </mxCell>
        <mxCell id="3BUjcoI-ck8Lt89UXKEq-26" style="edgeStyle=orthogonalEdgeStyle;rounded=0;orthogonalLoop=1;jettySize=auto;html=1;exitX=1;exitY=1;exitDx=0;exitDy=0;entryX=0;entryY=0.5;entryDx=0;entryDy=0;" parent="1" source="pVkDnm4UJQp13vE4F_3l-12" target="3BUjcoI-ck8Lt89UXKEq-6" edge="1">
          <mxGeometry relative="1" as="geometry">
            <Array as="points">
              <mxPoint x="440" y="580" />
            </Array>
          </mxGeometry>
        </mxCell>
        <mxCell id="3BUjcoI-ck8Lt89UXKEq-27" value="PWM 3v3" style="edgeLabel;html=1;align=center;verticalAlign=middle;resizable=0;points=[];" parent="3BUjcoI-ck8Lt89UXKEq-26" vertex="1" connectable="0">
          <mxGeometry x="0.819" y="-2" relative="1" as="geometry">
            <mxPoint as="offset" />
          </mxGeometry>
        </mxCell>
        <mxCell id="3BUjcoI-ck8Lt89UXKEq-29" style="edgeStyle=orthogonalEdgeStyle;rounded=0;orthogonalLoop=1;jettySize=auto;html=1;exitX=1;exitY=0.5;exitDx=0;exitDy=0;" parent="1" target="3BUjcoI-ck8Lt89UXKEq-22" edge="1">
          <mxGeometry relative="1" as="geometry">
            <mxPoint x="240" y="250" as="sourcePoint" />
            <Array as="points">
              <mxPoint x="270" y="250" />
              <mxPoint x="270" y="200" />
            </Array>
          </mxGeometry>
        </mxCell>
        <mxCell id="3BUjcoI-ck8Lt89UXKEq-30" style="edgeStyle=orthogonalEdgeStyle;rounded=0;orthogonalLoop=1;jettySize=auto;html=1;entryX=0;entryY=0.5;entryDx=0;entryDy=0;" parent="1" target="3BUjcoI-ck8Lt89UXKEq-28" edge="1">
          <mxGeometry relative="1" as="geometry">
            <mxPoint x="240" y="250" as="sourcePoint" />
            <Array as="points">
              <mxPoint x="270" y="250" />
              <mxPoint x="270" y="290" />
            </Array>
          </mxGeometry>
        </mxCell>
        <mxCell id="3BUjcoI-ck8Lt89UXKEq-36" style="edgeStyle=orthogonalEdgeStyle;rounded=0;orthogonalLoop=1;jettySize=auto;html=1;entryX=0;entryY=0.5;entryDx=0;entryDy=0;" parent="1" source="3BUjcoI-ck8Lt89UXKEq-22" target="3BUjcoI-ck8Lt89UXKEq-9" edge="1">
          <mxGeometry relative="1" as="geometry">
            <Array as="points">
              <mxPoint x="330" y="250" />
              <mxPoint x="592" y="250" />
              <mxPoint x="592" y="295" />
            </Array>
          </mxGeometry>
        </mxCell>
        <mxCell id="hm7Egg7z6qPXurAjoru_-3" value="" style="edgeStyle=orthogonalEdgeStyle;rounded=0;orthogonalLoop=1;jettySize=auto;html=1;exitX=1;exitY=0.5;exitDx=0;exitDy=0;endArrow=none;endFill=0;" edge="1" parent="1" source="hm7Egg7z6qPXurAjoru_-10">
          <mxGeometry relative="1" as="geometry">
            <mxPoint x="-170" y="250" as="sourcePoint" />
            <mxPoint x="240" y="250" as="targetPoint" />
            <Array as="points" />
          </mxGeometry>
        </mxCell>
        <mxCell id="hm7Egg7z6qPXurAjoru_-5" value="" style="edgeStyle=orthogonalEdgeStyle;rounded=0;orthogonalLoop=1;jettySize=auto;html=1;exitX=1;exitY=0.5;exitDx=0;exitDy=0;" edge="1" parent="1" source="pVkDnm4UJQp13vE4F_3l-2" target="hm7Egg7z6qPXurAjoru_-4">
          <mxGeometry relative="1" as="geometry">
            <mxPoint x="-170" y="250" as="sourcePoint" />
            <mxPoint x="180" y="250" as="targetPoint" />
            <Array as="points" />
          </mxGeometry>
        </mxCell>
        <mxCell id="hm7Egg7z6qPXurAjoru_-6" value="" style="edgeStyle=orthogonalEdgeStyle;rounded=0;orthogonalLoop=1;jettySize=auto;html=1;entryX=0;entryY=0.5;entryDx=0;entryDy=0;" edge="1" parent="1" source="pVkDnm4UJQp13vE4F_3l-2" target="hm7Egg7z6qPXurAjoru_-4">
          <mxGeometry relative="1" as="geometry">
            <mxPoint x="-170" y="250" as="sourcePoint" />
            <mxPoint x="180" y="250" as="targetPoint" />
            <Array as="points" />
          </mxGeometry>
        </mxCell>
        <mxCell id="hm7Egg7z6qPXurAjoru_-8" style="edgeStyle=orthogonalEdgeStyle;rounded=0;orthogonalLoop=1;jettySize=auto;html=1;entryX=0.5;entryY=1;entryDx=0;entryDy=0;" edge="1" parent="1" source="hm7Egg7z6qPXurAjoru_-7" target="3BUjcoI-ck8Lt89UXKEq-6">
          <mxGeometry relative="1" as="geometry" />
        </mxCell>
        <mxCell id="hm7Egg7z6qPXurAjoru_-10" value="xt60&lt;br&gt;kill&lt;br&gt;switch" style="rounded=0;whiteSpace=wrap;html=1;fillColor=#fff2cc;strokeColor=#d6b656;" vertex="1" parent="1">
          <mxGeometry x="100" y="220" width="40" height="60" as="geometry" />
        </mxCell>
        <mxCell id="hm7Egg7z6qPXurAjoru_-9" style="edgeStyle=orthogonalEdgeStyle;rounded=0;orthogonalLoop=1;jettySize=auto;html=1;entryX=0;entryY=0.5;entryDx=0;entryDy=0;exitX=0.5;exitY=1;exitDx=0;exitDy=0;" edge="1" parent="1" source="hm7Egg7z6qPXurAjoru_-10" target="hm7Egg7z6qPXurAjoru_-7">
          <mxGeometry relative="1" as="geometry">
            <Array as="points">
              <mxPoint x="120" y="310" />
              <mxPoint x="40" y="310" />
              <mxPoint x="40" y="720" />
            </Array>
          </mxGeometry>
        </mxCell>
        <mxCell id="hm7Egg7z6qPXurAjoru_-11" value="" style="edgeStyle=orthogonalEdgeStyle;rounded=0;orthogonalLoop=1;jettySize=auto;html=1;exitX=1;exitY=0.5;exitDx=0;exitDy=0;" edge="1" parent="1" source="hm7Egg7z6qPXurAjoru_-4" target="hm7Egg7z6qPXurAjoru_-10">
          <mxGeometry relative="1" as="geometry">
            <mxPoint x="60" y="250" as="sourcePoint" />
            <mxPoint x="180" y="250" as="targetPoint" />
            <Array as="points" />
          </mxGeometry>
        </mxCell>
        <mxCell id="hm7Egg7z6qPXurAjoru_-12" value="Ajouter un circuit de low voltage cutoff pour la V2" style="rounded=1;whiteSpace=wrap;html=1;fillColor=#ffe6cc;strokeColor=#d79b00;" vertex="1" parent="1">
          <mxGeometry x="60" y="-110" width="430" height="110" as="geometry" />
        </mxCell>
      </root>
    </mxGraphModel>
  </diagram>
</mxfile>
